<mxfile host="app.diagrams.net" agent="Mozilla/5.0 (Windows NT 10.0; Win64; x64) AppleWebKit/537.36 (KHTML, like Gecko) Chrome/131.0.0.0 Safari/537.36" version="24.8.6">
  <diagram name="Page-1" id="wp86RDbMWUCpPfeH1ttn">
    <mxGraphModel dx="1221" dy="759" grid="1" gridSize="10" guides="1" tooltips="1" connect="1" arrows="1" fold="1" page="1" pageScale="1" pageWidth="850" pageHeight="1100" math="0" shadow="0">
      <root>
        <mxCell id="0" />
        <mxCell id="1" parent="0" />
        <mxCell id="A4oGSqSUcUSEEyz4D5ul-1" value="&lt;h3&gt;&lt;b&gt;Start&lt;/b&gt;&lt;/h3&gt;" style="ellipse;whiteSpace=wrap;html=1;" parent="1" vertex="1">
          <mxGeometry x="80" y="50" width="120" height="80" as="geometry" />
        </mxCell>
        <mxCell id="A4oGSqSUcUSEEyz4D5ul-2" value="nhập a,b&lt;span style=&quot;background-color: initial;&quot;&gt;&amp;nbsp;và c&lt;/span&gt;" style="shape=parallelogram;perimeter=parallelogramPerimeter;whiteSpace=wrap;html=1;fixedSize=1;" parent="1" vertex="1">
          <mxGeometry x="80" y="200" width="120" height="60" as="geometry" />
        </mxCell>
        <mxCell id="A4oGSqSUcUSEEyz4D5ul-3" value="" style="endArrow=classic;html=1;rounded=0;exitX=0.5;exitY=1;exitDx=0;exitDy=0;entryX=0.5;entryY=0;entryDx=0;entryDy=0;" parent="1" source="A4oGSqSUcUSEEyz4D5ul-1" target="A4oGSqSUcUSEEyz4D5ul-2" edge="1">
          <mxGeometry width="50" height="50" relative="1" as="geometry">
            <mxPoint x="400" y="340" as="sourcePoint" />
            <mxPoint x="450" y="290" as="targetPoint" />
          </mxGeometry>
        </mxCell>
        <mxCell id="A4oGSqSUcUSEEyz4D5ul-4" value="&lt;div style=&quot;text-align: start;&quot;&gt;delta =&amp;nbsp;&lt;span style=&quot;margin: 0px; padding: 0px; border: 0px; font-variant-numeric: inherit; font-variant-east-asian: inherit; font-variant-alternates: inherit; font-variant-position: inherit; font-stretch: inherit; line-height: inherit; font-optical-sizing: inherit; font-size-adjust: inherit; font-kerning: inherit; font-feature-settings: inherit; font-variation-settings: inherit; color: rgba(0, 0, 0, 0.87); background-color: rgb(255, 255, 255);&quot;&gt;&lt;font style=&quot;font-size: 12px;&quot; face=&quot;Helvetica&quot;&gt;b&lt;sup style=&quot;font-style: inherit; font-variant: inherit; font-stretch: inherit; line-height: inherit; font-optical-sizing: inherit; font-size-adjust: inherit; font-kerning: inherit; font-feature-settings: inherit; font-variation-settings: inherit; margin: 0px; padding: 0px; border: 0px;&quot;&gt;2&lt;/sup&gt;-4ac&lt;/font&gt;&lt;/span&gt;&lt;/div&gt;" style="rounded=0;whiteSpace=wrap;html=1;" parent="1" vertex="1">
          <mxGeometry x="80" y="320" width="120" height="60" as="geometry" />
        </mxCell>
        <mxCell id="A4oGSqSUcUSEEyz4D5ul-5" value="" style="endArrow=classic;html=1;rounded=0;exitX=0.5;exitY=1;exitDx=0;exitDy=0;entryX=0.5;entryY=0;entryDx=0;entryDy=0;" parent="1" source="A4oGSqSUcUSEEyz4D5ul-2" target="A4oGSqSUcUSEEyz4D5ul-4" edge="1">
          <mxGeometry width="50" height="50" relative="1" as="geometry">
            <mxPoint x="400" y="340" as="sourcePoint" />
            <mxPoint x="450" y="290" as="targetPoint" />
          </mxGeometry>
        </mxCell>
        <mxCell id="A4oGSqSUcUSEEyz4D5ul-6" value="" style="endArrow=classic;html=1;rounded=0;exitX=0.5;exitY=1;exitDx=0;exitDy=0;entryX=0.5;entryY=0;entryDx=0;entryDy=0;" parent="1" source="A4oGSqSUcUSEEyz4D5ul-4" edge="1" target="A4oGSqSUcUSEEyz4D5ul-10">
          <mxGeometry width="50" height="50" relative="1" as="geometry">
            <mxPoint x="400" y="340" as="sourcePoint" />
            <mxPoint x="140" y="400" as="targetPoint" />
          </mxGeometry>
        </mxCell>
        <mxCell id="A4oGSqSUcUSEEyz4D5ul-7" value="delta &amp;lt; 0&amp;nbsp;" style="rhombus;whiteSpace=wrap;html=1;" parent="1" vertex="1">
          <mxGeometry x="80" y="575" width="120" height="70" as="geometry" />
        </mxCell>
        <mxCell id="A4oGSqSUcUSEEyz4D5ul-8" value="" style="endArrow=classic;html=1;rounded=0;exitX=1;exitY=0.5;exitDx=0;exitDy=0;" parent="1" source="A4oGSqSUcUSEEyz4D5ul-7" target="A4oGSqSUcUSEEyz4D5ul-9" edge="1">
          <mxGeometry width="50" height="50" relative="1" as="geometry">
            <mxPoint x="400" y="440" as="sourcePoint" />
            <mxPoint x="270" y="435" as="targetPoint" />
          </mxGeometry>
        </mxCell>
        <mxCell id="Hgmk9UaSGIvs3baI_Avj-2" style="edgeStyle=orthogonalEdgeStyle;rounded=0;orthogonalLoop=1;jettySize=auto;html=1;exitX=1;exitY=0.5;exitDx=0;exitDy=0;entryX=0;entryY=0.5;entryDx=0;entryDy=0;" edge="1" parent="1" source="A4oGSqSUcUSEEyz4D5ul-9" target="A4oGSqSUcUSEEyz4D5ul-29">
          <mxGeometry relative="1" as="geometry" />
        </mxCell>
        <mxCell id="A4oGSqSUcUSEEyz4D5ul-9" value="in phương trình&amp;nbsp;&lt;br&gt;vô nghiệm" style="shape=parallelogram;perimeter=parallelogramPerimeter;whiteSpace=wrap;html=1;fixedSize=1;" parent="1" vertex="1">
          <mxGeometry x="335" y="580" width="120" height="60" as="geometry" />
        </mxCell>
        <mxCell id="A4oGSqSUcUSEEyz4D5ul-10" value="a = 0" style="rhombus;whiteSpace=wrap;html=1;" parent="1" vertex="1">
          <mxGeometry x="80" y="450" width="120" height="70" as="geometry" />
        </mxCell>
        <mxCell id="A4oGSqSUcUSEEyz4D5ul-11" value="" style="endArrow=classic;html=1;rounded=0;exitX=1;exitY=0.5;exitDx=0;exitDy=0;" parent="1" source="A4oGSqSUcUSEEyz4D5ul-10" target="A4oGSqSUcUSEEyz4D5ul-12" edge="1">
          <mxGeometry width="50" height="50" relative="1" as="geometry">
            <mxPoint x="400" y="440" as="sourcePoint" />
            <mxPoint x="270" y="435" as="targetPoint" />
          </mxGeometry>
        </mxCell>
        <mxCell id="Hgmk9UaSGIvs3baI_Avj-1" style="edgeStyle=orthogonalEdgeStyle;rounded=0;orthogonalLoop=1;jettySize=auto;html=1;exitX=1;exitY=0.5;exitDx=0;exitDy=0;entryX=0.5;entryY=0;entryDx=0;entryDy=0;" edge="1" parent="1" source="A4oGSqSUcUSEEyz4D5ul-12" target="A4oGSqSUcUSEEyz4D5ul-29">
          <mxGeometry relative="1" as="geometry" />
        </mxCell>
        <mxCell id="A4oGSqSUcUSEEyz4D5ul-12" value="in là phương trình&lt;div&gt;bậc nhất&lt;/div&gt;" style="shape=parallelogram;perimeter=parallelogramPerimeter;whiteSpace=wrap;html=1;fixedSize=1;" parent="1" vertex="1">
          <mxGeometry x="335" y="457.5" width="130" height="55" as="geometry" />
        </mxCell>
        <mxCell id="A4oGSqSUcUSEEyz4D5ul-13" value="" style="endArrow=classic;html=1;rounded=0;exitX=0.5;exitY=1;exitDx=0;exitDy=0;entryX=0.5;entryY=0;entryDx=0;entryDy=0;" parent="1" source="A4oGSqSUcUSEEyz4D5ul-10" target="A4oGSqSUcUSEEyz4D5ul-7" edge="1">
          <mxGeometry width="50" height="50" relative="1" as="geometry">
            <mxPoint x="400" y="440" as="sourcePoint" />
            <mxPoint x="450" y="390" as="targetPoint" />
          </mxGeometry>
        </mxCell>
        <mxCell id="A4oGSqSUcUSEEyz4D5ul-14" value="" style="endArrow=classic;html=1;rounded=0;exitX=0.5;exitY=1;exitDx=0;exitDy=0;entryX=0.5;entryY=0;entryDx=0;entryDy=0;exitPerimeter=0;" parent="1" edge="1" target="A4oGSqSUcUSEEyz4D5ul-15" source="A4oGSqSUcUSEEyz4D5ul-7">
          <mxGeometry width="50" height="50" relative="1" as="geometry">
            <mxPoint x="140" y="580" as="sourcePoint" />
            <mxPoint x="140" y="620" as="targetPoint" />
          </mxGeometry>
        </mxCell>
        <mxCell id="A4oGSqSUcUSEEyz4D5ul-15" value="delta = 0" style="rhombus;whiteSpace=wrap;html=1;" parent="1" vertex="1">
          <mxGeometry x="80" y="705" width="120" height="70" as="geometry" />
        </mxCell>
        <mxCell id="A4oGSqSUcUSEEyz4D5ul-16" value="" style="endArrow=classic;html=1;rounded=0;exitX=1;exitY=0.5;exitDx=0;exitDy=0;" parent="1" source="A4oGSqSUcUSEEyz4D5ul-15" target="A4oGSqSUcUSEEyz4D5ul-17" edge="1">
          <mxGeometry width="50" height="50" relative="1" as="geometry">
            <mxPoint x="400" y="660" as="sourcePoint" />
            <mxPoint x="270" y="655" as="targetPoint" />
          </mxGeometry>
        </mxCell>
        <mxCell id="Hgmk9UaSGIvs3baI_Avj-3" style="edgeStyle=orthogonalEdgeStyle;rounded=0;orthogonalLoop=1;jettySize=auto;html=1;exitX=1;exitY=0.5;exitDx=0;exitDy=0;entryX=0.5;entryY=1;entryDx=0;entryDy=0;" edge="1" parent="1" source="A4oGSqSUcUSEEyz4D5ul-17" target="A4oGSqSUcUSEEyz4D5ul-29">
          <mxGeometry relative="1" as="geometry" />
        </mxCell>
        <mxCell id="A4oGSqSUcUSEEyz4D5ul-17" value="&lt;br&gt;in phương trình&lt;div&gt;có nghiệm kép&lt;br&gt;x1=x2=-b/2a&lt;br&gt;&lt;div style=&quot;text-align: left;&quot;&gt;&lt;br&gt;&lt;/div&gt;&lt;/div&gt;" style="shape=parallelogram;perimeter=parallelogramPerimeter;whiteSpace=wrap;html=1;fixedSize=1;" parent="1" vertex="1">
          <mxGeometry x="335" y="712.5" width="130" height="55" as="geometry" />
        </mxCell>
        <mxCell id="A4oGSqSUcUSEEyz4D5ul-18" value="" style="endArrow=classic;html=1;rounded=0;exitX=0.5;exitY=1;exitDx=0;exitDy=0;entryX=0.5;entryY=0;entryDx=0;entryDy=0;" parent="1" edge="1" target="A4oGSqSUcUSEEyz4D5ul-19" source="A4oGSqSUcUSEEyz4D5ul-15">
          <mxGeometry width="50" height="50" relative="1" as="geometry">
            <mxPoint x="140" y="690" as="sourcePoint" />
            <mxPoint x="140" y="730" as="targetPoint" />
          </mxGeometry>
        </mxCell>
        <mxCell id="A4oGSqSUcUSEEyz4D5ul-19" value="delta &amp;gt; 0" style="rhombus;whiteSpace=wrap;html=1;" parent="1" vertex="1">
          <mxGeometry x="80" y="840" width="120" height="70" as="geometry" />
        </mxCell>
        <mxCell id="A4oGSqSUcUSEEyz4D5ul-20" value="" style="endArrow=classic;html=1;rounded=0;exitX=1;exitY=0.5;exitDx=0;exitDy=0;" parent="1" source="A4oGSqSUcUSEEyz4D5ul-19" target="A4oGSqSUcUSEEyz4D5ul-21" edge="1">
          <mxGeometry width="50" height="50" relative="1" as="geometry">
            <mxPoint x="400" y="770" as="sourcePoint" />
            <mxPoint x="270" y="765" as="targetPoint" />
          </mxGeometry>
        </mxCell>
        <mxCell id="Hgmk9UaSGIvs3baI_Avj-4" style="edgeStyle=orthogonalEdgeStyle;rounded=0;orthogonalLoop=1;jettySize=auto;html=1;exitX=1;exitY=0.5;exitDx=0;exitDy=0;entryX=1;entryY=0.5;entryDx=0;entryDy=0;" edge="1" parent="1" source="A4oGSqSUcUSEEyz4D5ul-21" target="A4oGSqSUcUSEEyz4D5ul-29">
          <mxGeometry relative="1" as="geometry" />
        </mxCell>
        <mxCell id="A4oGSqSUcUSEEyz4D5ul-21" value="&lt;div&gt;&lt;div style=&quot;text-align: left;&quot;&gt;in phương trình có hai nghiệm&lt;/div&gt;&lt;/div&gt;&lt;div style=&quot;text-align: left;&quot;&gt;phân biệt:&amp;nbsp; x1=(-b+sqrt(delta)/2a&lt;br&gt;&amp;nbsp; &amp;nbsp; &amp;nbsp; &amp;nbsp; x2=(&lt;span style=&quot;background-color: initial;&quot;&gt;-b-sqrt(delta)/2a&lt;/span&gt;&lt;/div&gt;" style="shape=parallelogram;perimeter=parallelogramPerimeter;whiteSpace=wrap;html=1;fixedSize=1;" parent="1" vertex="1">
          <mxGeometry x="330" y="840" width="210" height="65" as="geometry" />
        </mxCell>
        <mxCell id="A4oGSqSUcUSEEyz4D5ul-22" value="&lt;div&gt;&lt;br&gt;&lt;/div&gt;&lt;div&gt;false&lt;br&gt;&lt;/div&gt;" style="text;html=1;align=center;verticalAlign=middle;resizable=0;points=[];autosize=1;strokeColor=none;fillColor=none;" parent="1" vertex="1">
          <mxGeometry x="90" y="520" width="50" height="40" as="geometry" />
        </mxCell>
        <mxCell id="A4oGSqSUcUSEEyz4D5ul-23" value="&lt;span style=&quot;color: rgb(0, 0, 0); font-family: Helvetica; font-size: 12px; font-style: normal; font-variant-ligatures: normal; font-variant-caps: normal; font-weight: 400; letter-spacing: normal; orphans: 2; text-align: center; text-indent: 0px; text-transform: none; widows: 2; word-spacing: 0px; -webkit-text-stroke-width: 0px; white-space: nowrap; background-color: rgb(251, 251, 251); text-decoration-thickness: initial; text-decoration-style: initial; text-decoration-color: initial; display: inline !important; float: none;&quot;&gt;false&lt;/span&gt;" style="text;whiteSpace=wrap;html=1;" parent="1" vertex="1">
          <mxGeometry x="100" y="660" width="60" height="40" as="geometry" />
        </mxCell>
        <mxCell id="A4oGSqSUcUSEEyz4D5ul-24" value="&lt;span style=&quot;color: rgb(0, 0, 0); font-family: Helvetica; font-size: 12px; font-style: normal; font-variant-ligatures: normal; font-variant-caps: normal; font-weight: 400; letter-spacing: normal; orphans: 2; text-align: center; text-indent: 0px; text-transform: none; widows: 2; word-spacing: 0px; -webkit-text-stroke-width: 0px; white-space: nowrap; background-color: rgb(251, 251, 251); text-decoration-thickness: initial; text-decoration-style: initial; text-decoration-color: initial; display: inline !important; float: none;&quot;&gt;false&lt;/span&gt;" style="text;whiteSpace=wrap;html=1;" parent="1" vertex="1">
          <mxGeometry x="100" y="790" width="60" height="40" as="geometry" />
        </mxCell>
        <mxCell id="A4oGSqSUcUSEEyz4D5ul-25" value="true" style="text;html=1;align=center;verticalAlign=middle;resizable=0;points=[];autosize=1;strokeColor=none;fillColor=none;" parent="1" vertex="1">
          <mxGeometry x="250" y="457.5" width="40" height="30" as="geometry" />
        </mxCell>
        <mxCell id="A4oGSqSUcUSEEyz4D5ul-26" value="&lt;span style=&quot;color: rgb(0, 0, 0); font-family: Helvetica; font-size: 12px; font-style: normal; font-variant-ligatures: normal; font-variant-caps: normal; font-weight: 400; letter-spacing: normal; orphans: 2; text-align: center; text-indent: 0px; text-transform: none; widows: 2; word-spacing: 0px; -webkit-text-stroke-width: 0px; white-space: nowrap; background-color: rgb(251, 251, 251); text-decoration-thickness: initial; text-decoration-style: initial; text-decoration-color: initial; display: inline !important; float: none;&quot;&gt;true&lt;/span&gt;" style="text;whiteSpace=wrap;html=1;" parent="1" vertex="1">
          <mxGeometry x="250" y="575" width="50" height="40" as="geometry" />
        </mxCell>
        <mxCell id="A4oGSqSUcUSEEyz4D5ul-27" value="&lt;span style=&quot;color: rgb(0, 0, 0); font-family: Helvetica; font-size: 12px; font-style: normal; font-variant-ligatures: normal; font-variant-caps: normal; font-weight: 400; letter-spacing: normal; orphans: 2; text-align: center; text-indent: 0px; text-transform: none; widows: 2; word-spacing: 0px; -webkit-text-stroke-width: 0px; white-space: nowrap; background-color: rgb(251, 251, 251); text-decoration-thickness: initial; text-decoration-style: initial; text-decoration-color: initial; display: inline !important; float: none;&quot;&gt;true&lt;/span&gt;" style="text;whiteSpace=wrap;html=1;" parent="1" vertex="1">
          <mxGeometry x="250" y="705" width="50" height="40" as="geometry" />
        </mxCell>
        <mxCell id="A4oGSqSUcUSEEyz4D5ul-28" value="&lt;span style=&quot;color: rgb(0, 0, 0); font-family: Helvetica; font-size: 12px; font-style: normal; font-variant-ligatures: normal; font-variant-caps: normal; font-weight: 400; letter-spacing: normal; orphans: 2; text-align: center; text-indent: 0px; text-transform: none; widows: 2; word-spacing: 0px; -webkit-text-stroke-width: 0px; white-space: nowrap; background-color: rgb(251, 251, 251); text-decoration-thickness: initial; text-decoration-style: initial; text-decoration-color: initial; display: inline !important; float: none;&quot;&gt;true&lt;/span&gt;" style="text;whiteSpace=wrap;html=1;" parent="1" vertex="1">
          <mxGeometry x="250" y="840" width="50" height="40" as="geometry" />
        </mxCell>
        <mxCell id="A4oGSqSUcUSEEyz4D5ul-29" value="&lt;div&gt;end&lt;/div&gt;" style="ellipse;whiteSpace=wrap;html=1;" parent="1" vertex="1">
          <mxGeometry x="660" y="600" width="120" height="70" as="geometry" />
        </mxCell>
      </root>
    </mxGraphModel>
  </diagram>
</mxfile>
